<svg width="82" height="75" viewBox="0 0 82 75" fill="none" xmlns="http://www.w3.org/2000/svg">
<path fill-rule="evenodd" clip-rule="evenodd" d="M56.6619 9.57591C39.8461 -7.06474 25.5227 0.503211 23.0303 13.181C20.5379 25.8588 -2.61463 28.3901 0.244004 43.3645C3.10264 58.3389 34.2408 49.4478 34.2408 63.0183C34.2408 76.5889 70.2429 76.1209 70.2429 58.3389C70.2429 40.5568 73.4777 26.2166 56.6619 9.57591Z" fill="white" fill-opacity="0.2"/>
<mask id="mask0_341_19434" style="mask-type:luminance" maskUnits="userSpaceOnUse" x="0" y="0" width="71" height="73">
<path fill-rule="evenodd" clip-rule="evenodd" d="M56.6619 9.57591C39.8461 -7.06474 25.5227 0.503211 23.0303 13.181C20.5379 25.8588 -2.61463 28.3901 0.244004 43.3645C3.10264 58.3389 34.2408 49.4478 34.2408 63.0183C34.2408 76.5889 70.2429 76.1209 70.2429 58.3389C70.2429 40.5568 73.4777 26.2166 56.6619 9.57591Z" fill="white"/>
</mask>
<g mask="url(#mask0_341_19434)">
<g opacity="0.2">
<rect width="71" height="73" fill="#FA7602"/>
</g>
</g>
<g clip-path="url(#clip0_341_19434)">
<path d="M69.8734 40.7877H75.2628C75.4784 41.5907 75.9785 42.288 76.67 42.7497C77.3615 43.2114 78.1972 43.406 79.0216 43.2973C79.8459 43.1886 80.6026 42.784 81.1507 42.1588C81.6989 41.5336 82.0011 40.7305 82.0011 39.899C82.0011 39.0675 81.6989 38.2644 81.1507 37.6392C80.6026 37.014 79.8459 36.6094 79.0216 36.5007C78.1972 36.392 77.3615 36.5866 76.67 37.0483C75.9785 37.51 75.4784 38.2073 75.2628 39.0103H69.8734V34.7061H73.8725C74.0137 34.7061 74.153 34.6724 74.2786 34.6079C74.4043 34.5433 74.5128 34.4497 74.5951 34.3349L77.3677 30.4618C78.1456 30.7524 79.0026 30.7503 79.7791 30.4559C80.5556 30.1616 81.1987 29.5951 81.5885 28.8619C81.9784 28.1287 82.0884 27.2788 81.8983 26.4704C81.7081 25.6621 81.2306 24.9504 80.5547 24.468C79.8789 23.9855 79.0507 23.7652 78.2244 23.8479C77.3981 23.9307 76.6301 24.3109 76.0633 24.9178C75.4966 25.5247 75.1697 26.3169 75.1436 27.1469C75.1175 27.9769 75.394 28.7881 75.9215 29.4294L73.4154 32.9288H69.8729V29.6336C69.8729 29.3979 69.7793 29.1718 69.6126 29.0052C69.446 28.8385 69.2199 28.7449 68.9842 28.7449C67.6097 28.7446 66.2704 28.3103 65.1574 27.5038L70.0603 21.4608C70.8224 21.8027 71.6828 21.8558 72.4811 21.6102C73.2794 21.3646 73.9612 20.837 74.3994 20.1259C74.8375 19.4148 75.0022 18.5687 74.8626 17.7452C74.723 16.9217 74.2887 16.177 73.6407 15.65C72.9927 15.123 72.1752 14.8496 71.3405 14.8808C70.5058 14.912 69.711 15.2456 69.1041 15.8195C68.4972 16.3934 68.1198 17.1684 68.042 18C67.9643 18.8316 68.1916 19.6632 68.6816 20.3396L63.863 26.281C62.9273 25.1193 62.4173 23.6725 62.4177 22.1809C62.4176 21.9453 62.3239 21.7193 62.1573 21.5527C61.9907 21.3861 61.7647 21.2924 61.5291 21.2922H37.4653C37.2297 21.2924 37.0037 21.3861 36.8371 21.5527C36.6705 21.7193 36.5768 21.9453 36.5767 22.1809C36.5771 23.6725 36.0671 25.1193 35.1314 26.281L30.3128 20.3391C30.8008 19.6644 31.0269 18.8353 30.9489 18.0062C30.8709 17.1772 30.4942 16.4048 29.889 15.8329C29.2838 15.261 28.4913 14.9286 27.6592 14.8977C26.8271 14.8667 26.0121 15.1394 25.3661 15.6647C24.72 16.1901 24.287 16.9324 24.1477 17.7534C24.0084 18.5743 24.1723 19.4179 24.6089 20.127C25.0454 20.8361 25.7248 21.3623 26.5206 21.6076C27.3163 21.8529 28.1741 21.8006 28.9341 21.4603L33.837 27.5033C32.724 28.3098 31.3847 28.7441 30.0101 28.7444C29.7745 28.7444 29.5484 28.838 29.3818 29.0047C29.2151 29.1713 29.1215 29.3974 29.1215 29.6331V32.9283H25.5795L23.0739 29.4289C23.6092 28.7818 23.8908 27.962 23.8662 27.1225C23.8415 26.283 23.5123 25.4812 22.9399 24.8666C22.3676 24.252 21.5912 23.8666 20.7555 23.7823C19.9199 23.698 19.0822 23.9207 18.3987 24.4086C17.7151 24.8965 17.2324 25.6165 17.0406 26.4342C16.8488 27.2518 16.9611 28.1113 17.3564 28.8523C17.7517 29.5933 18.4031 30.1652 19.189 30.4612C19.9749 30.7573 20.8417 30.7573 21.6277 30.4613L24.4003 34.3344C24.4825 34.4492 24.5909 34.5429 24.7165 34.6075C24.8421 34.6722 24.9812 34.706 25.1225 34.7061H29.1215V39.0103H23.7321C23.5165 38.2073 23.0164 37.51 22.3249 37.0483C21.6334 36.5866 20.7977 36.392 19.9733 36.5007C19.149 36.6094 18.3923 37.014 17.8442 37.6392C17.296 38.2644 16.9938 39.0675 16.9938 39.899C16.9938 40.7305 17.296 41.5336 17.8442 42.1588C18.3923 42.784 19.149 43.1886 19.9733 43.2973C20.7977 43.406 21.6334 43.2114 22.3249 42.7497C23.0164 42.288 23.5165 41.5907 23.7321 40.7877H29.1215V45.7972C29.1215 46.0202 29.1342 46.2411 29.1418 46.463H24.7416C24.5768 46.4631 24.4153 46.5089 24.275 46.5954C24.1348 46.682 24.0213 46.8058 23.9474 46.953L21.1158 52.5953C20.2968 52.4227 19.443 52.5538 18.7135 52.9642C17.9841 53.3747 17.4288 54.0364 17.1512 54.826C16.8736 55.6156 16.8926 56.4792 17.2048 57.2559C17.5169 58.0325 18.1009 58.669 18.8477 59.0469C19.5946 59.4247 20.4534 59.5181 21.2639 59.3095C22.0745 59.1009 22.7816 58.6046 23.2533 57.9132C23.725 57.2218 23.9291 56.3824 23.8276 55.5516C23.7262 54.7208 23.326 53.9552 22.7017 53.3977L25.29 48.2383H29.2865C29.819 52.2748 31.6621 56.0248 34.5327 58.912L28.7711 63.8419C28.0816 63.3666 27.2428 63.1583 26.4112 63.2559C25.5795 63.3534 24.8116 63.7501 24.2509 64.372C23.6901 64.9939 23.3746 65.7985 23.3633 66.6358C23.3519 67.4731 23.6455 68.286 24.1893 68.9228C24.7331 69.5596 25.4899 69.9769 26.3186 70.0969C27.1474 70.2169 27.9915 70.0314 28.6935 69.575C29.3956 69.1186 29.9077 68.4224 30.1343 67.6162C30.361 66.8101 30.2867 65.9491 29.9253 65.1937L35.8601 60.1155C36.303 60.4827 36.759 60.8371 37.2394 61.1647L48.9967 69.1881C49.1447 69.2879 49.319 69.3412 49.4975 69.3412C49.6759 69.3412 49.8502 69.2879 49.9982 69.1881L61.7555 61.1647C62.2359 60.8371 62.6919 60.4827 63.1348 60.1155L69.0696 65.1937C68.7122 65.9441 68.6399 66.7989 68.8659 67.5987C69.092 68.3986 69.601 69.089 70.2983 69.5414C70.9956 69.9938 71.8335 70.1774 72.6561 70.0579C73.4786 69.9384 74.2297 69.524 74.7695 68.8919C75.3092 68.2598 75.6008 67.4531 75.5899 66.622C75.579 65.7909 75.2665 64.992 74.7104 64.3743C74.1543 63.7565 73.3927 63.3619 72.5673 63.2639C71.7419 63.166 70.909 63.3714 70.2238 63.8419L64.4622 58.912C67.3328 56.0248 69.176 52.2748 69.7084 48.2383H73.7044L76.2942 53.3956C75.6828 53.9463 75.2922 54.7003 75.195 55.5174C75.0978 56.3344 75.3006 57.159 75.7658 57.8377C76.2309 58.5165 76.9267 59.0032 77.7238 59.2074C78.5209 59.4117 79.365 59.3195 80.0992 58.948C80.8334 58.5766 81.4077 57.9511 81.7154 57.188C82.0231 56.4248 82.0432 55.5759 81.7719 54.7991C81.5006 54.0223 80.9565 53.3704 80.2406 52.9647C79.5248 52.5589 78.686 52.427 77.8801 52.5933L75.0485 46.951C74.9746 46.8037 74.8611 46.6799 74.7209 46.5934C74.5807 46.5069 74.4191 46.461 74.2543 46.461H69.8541C69.8618 46.239 69.8744 46.0181 69.8744 45.7952L69.8734 40.7877ZM78.5697 38.2486C78.8961 38.2486 79.2152 38.3454 79.4866 38.5268C79.758 38.7081 79.9696 38.9659 80.0945 39.2674C80.2194 39.569 80.2521 39.9008 80.1884 40.221C80.1247 40.5411 79.9675 40.8352 79.7367 41.066C79.5059 41.2968 79.2118 41.454 78.8917 41.5177C78.5715 41.5814 78.2397 41.5487 77.9381 41.4238C77.6366 41.2989 77.3788 41.0873 77.1975 40.8159C77.0161 40.5445 76.9193 40.2254 76.9193 39.899C76.9199 39.4615 77.0939 39.042 77.4033 38.7326C77.7127 38.4232 78.1322 38.2491 78.5697 38.2486ZM78.5697 25.6041C78.8961 25.6041 79.2152 25.7009 79.4866 25.8822C79.758 26.0636 79.9696 26.3213 80.0945 26.6229C80.2194 26.9245 80.2521 27.2563 80.1884 27.5764C80.1247 27.8966 79.9675 28.1907 79.7367 28.4215C79.5059 28.6523 79.2118 28.8095 78.8917 28.8732C78.5715 28.9368 78.2397 28.9041 77.9381 28.7792C77.6366 28.6543 77.3788 28.4428 77.1975 28.1714C77.0161 27.9 76.9193 27.5809 76.9193 27.2545C76.9203 26.8172 77.0945 26.3981 77.4039 26.089C77.7132 25.78 78.1324 25.6061 78.5697 25.6056V25.6041ZM18.7748 27.256C18.7748 26.9296 18.8716 26.6105 19.0529 26.3391C19.2343 26.0677 19.492 25.8561 19.7936 25.7312C20.0952 25.6063 20.427 25.5736 20.7472 25.6373C21.0673 25.701 21.3614 25.8582 21.5922 26.089C21.823 26.3198 21.9802 26.6139 22.0439 26.934C22.1075 27.2542 22.0749 27.586 21.9499 27.8876C21.825 28.1891 21.6135 28.4469 21.3421 28.6282C21.0707 28.8096 20.7516 28.9064 20.4252 28.9064C19.9876 28.9058 19.5682 28.7318 19.2588 28.4224C18.9494 28.113 18.7753 27.6935 18.7748 27.256ZM20.4252 41.5494C20.0988 41.5494 19.7797 41.4526 19.5083 41.2713C19.2369 41.0899 19.0253 40.8321 18.9004 40.5306C18.7755 40.229 18.7428 39.8972 18.8065 39.577C18.8702 39.2569 19.0274 38.9628 19.2582 38.732C19.489 38.5012 19.7831 38.344 20.1032 38.2803C20.4234 38.2166 20.7552 38.2493 21.0568 38.3742C21.3583 38.4992 21.6161 38.7107 21.7974 38.9821C21.9788 39.2535 22.0756 39.5726 22.0756 39.899C22.075 40.3365 21.901 40.756 21.5916 41.0654C21.2822 41.3748 20.8627 41.5489 20.4252 41.5494ZM20.4252 57.6034C20.0988 57.6034 19.7797 57.5066 19.5083 57.3252C19.2369 57.1439 19.0253 56.8861 18.9004 56.5846C18.7755 56.283 18.7428 55.9512 18.8065 55.631C18.8702 55.3109 19.0274 55.0168 19.2582 54.786C19.489 54.5552 19.7831 54.398 20.1032 54.3343C20.4234 54.2706 20.7552 54.3033 21.0568 54.4282C21.3583 54.5531 21.6161 54.7647 21.7974 55.0361C21.9788 55.3075 22.0756 55.6266 22.0756 55.953C22.075 56.3905 21.901 56.81 21.5916 57.1194C21.2822 57.4288 20.8627 57.6028 20.4252 57.6034ZM80.2201 55.953C80.2201 56.2794 80.1233 56.5985 79.942 56.8699C79.7606 57.1413 79.5029 57.3528 79.2013 57.4777C78.8997 57.6027 78.5679 57.6353 78.2477 57.5717C77.9276 57.508 77.6335 57.3508 77.4027 57.12C77.1719 56.8892 77.0147 56.5951 76.951 56.275C76.8874 55.9548 76.92 55.623 77.045 55.3214C77.1699 55.0198 77.3814 54.7621 77.6528 54.5807C77.9242 54.3994 78.2433 54.3026 78.5697 54.3026C79.0073 54.3031 79.4267 54.4772 79.7361 54.7866C80.0455 55.096 80.2196 55.5154 80.2201 55.953ZM71.4553 16.6818C71.7817 16.6818 72.1008 16.7786 72.3722 16.96C72.6436 17.1413 72.8551 17.3991 72.98 17.7006C73.1049 18.0022 73.1376 18.334 73.0739 18.6542C73.0103 18.9743 72.8531 19.2684 72.6223 19.4992C72.3915 19.73 72.0974 19.8872 71.7772 19.9509C71.4571 20.0146 71.1253 19.9819 70.8237 19.857C70.5221 19.7321 70.2644 19.5205 70.083 19.2491C69.9017 18.9777 69.8049 18.6586 69.8049 18.3322C69.8054 17.8947 69.9795 17.4752 70.2889 17.1658C70.5982 16.8564 71.0177 16.6824 71.4553 16.6818ZM25.8892 18.3322C25.8892 18.0058 25.986 17.6867 26.1674 17.4153C26.3487 17.1439 26.6065 16.9324 26.9081 16.8074C27.2096 16.6825 27.5415 16.6498 27.8616 16.7135C28.1818 16.7772 28.4758 16.9344 28.7066 17.1652C28.9375 17.396 29.0946 17.6901 29.1583 18.0102C29.222 18.3304 29.1893 18.6622 29.0644 18.9638C28.9395 19.2654 28.728 19.5231 28.4565 19.7045C28.1851 19.8858 27.8661 19.9826 27.5396 19.9826C27.1021 19.9821 26.6826 19.808 26.3732 19.4986C26.0638 19.1892 25.8898 18.7698 25.8892 18.3322ZM26.8353 68.3182C26.5089 68.3182 26.1898 68.2214 25.9184 68.0401C25.647 67.8587 25.4355 67.601 25.3105 67.2994C25.1856 66.9978 25.1529 66.666 25.2166 66.3459C25.2803 66.0257 25.4375 65.7316 25.6683 65.5008C25.8991 65.27 26.1932 65.1128 26.5133 65.0492C26.8335 64.9855 27.1653 65.0182 27.4669 65.1431C27.7685 65.268 28.0262 65.4795 28.2076 65.7509C28.3889 66.0223 28.4857 66.3414 28.4857 66.6678C28.4852 67.1054 28.3111 67.5249 28.0017 67.8342C27.6923 68.1436 27.2729 68.3177 26.8353 68.3182ZM60.7536 59.6971L49.4975 67.3772L38.2413 59.6971C35.9777 58.1536 34.1255 56.0805 32.8459 53.658C31.5662 51.2354 30.8978 48.537 30.8988 45.7972V30.475C32.7876 30.2551 34.5469 29.4039 35.8915 28.0592C37.2361 26.7146 38.0874 24.9554 38.3073 23.0665H60.6876C60.9075 24.9554 61.7588 26.7146 63.1034 28.0592C64.448 29.4039 66.2073 30.2551 68.0961 30.475V45.7972C68.0971 48.537 67.4287 51.2354 66.149 53.658C64.8694 56.0805 63.0172 58.1536 60.7536 59.6971ZM73.81 66.6678C73.81 66.9943 73.7132 67.3133 73.5319 67.5847C73.3505 67.8561 73.0927 68.0677 72.7912 68.1926C72.4896 68.3175 72.1578 68.3502 71.8376 68.2865C71.5175 68.2228 71.2234 68.0656 70.9926 67.8348C70.7618 67.604 70.6046 67.31 70.5409 66.9898C70.4772 66.6697 70.5099 66.3378 70.6348 66.0363C70.7598 65.7347 70.9713 65.4769 71.2427 65.2956C71.5141 65.1142 71.8332 65.0174 72.1596 65.0174C72.5971 65.018 73.0166 65.192 73.326 65.5014C73.6354 65.8108 73.8095 66.2303 73.81 66.6678Z" fill="#222A41"/>
<path d="M64.7949 33.6365C64.795 33.4646 64.7451 33.2963 64.6515 33.1521C64.5579 33.0079 64.4244 32.8939 64.2673 32.824C61.6248 31.6504 59.512 29.5377 58.3381 26.8953C58.2682 26.7382 58.1543 26.6047 58.0101 26.511C57.8659 26.4174 57.6976 26.3676 57.5256 26.3677H41.4681C41.2961 26.3676 41.1278 26.4174 40.9836 26.511C40.8394 26.6047 40.7254 26.7382 40.6556 26.8953C39.4819 29.5378 37.3693 31.6507 34.7268 32.8245C34.5698 32.8944 34.4363 33.0084 34.3427 33.1526C34.249 33.2968 34.1992 33.4651 34.1992 33.637V45.7976C34.1981 48.0004 34.7354 50.17 35.7643 52.1178C36.7931 54.0655 38.2824 55.7323 40.1025 56.973L48.9974 63.0424C49.1453 63.1422 49.3197 63.1955 49.4981 63.1955C49.6765 63.1955 49.8509 63.1422 49.9988 63.0424L58.8916 56.973C60.711 55.7325 62.1998 54.0662 63.2285 52.1192C64.2572 50.1721 64.7946 48.0032 64.7939 45.8012L64.7949 33.6365ZM63.0176 45.7976C63.018 47.7102 62.5511 49.5939 61.6576 51.2849C60.7641 52.9759 59.471 54.423 57.8907 55.5004L49.4971 61.23L41.1029 55.5004C39.5228 54.4229 38.2299 52.9757 37.3364 51.2847C36.443 49.5938 35.9762 47.7101 35.9766 45.7976V34.2002C38.6013 32.896 40.7279 30.7697 42.0322 28.145H56.9619C58.2663 30.7697 60.3928 32.896 63.0176 34.2002V45.7976Z" fill="#FA7602"/>
</g>
<defs>
<clipPath id="clip0_341_19434">
<rect width="65" height="65" fill="white" transform="translate(17 10)"/>
</clipPath>
</defs>
</svg>
