<svg width="80" height="73" viewBox="0 0 80 73" fill="none" xmlns="http://www.w3.org/2000/svg">
<path fill-rule="evenodd" clip-rule="evenodd" d="M56.6619 9.57591C39.8461 -7.06474 25.5227 0.503211 23.0303 13.181C20.5379 25.8588 -2.61463 28.3901 0.244004 43.3645C3.10264 58.3389 34.2408 49.4478 34.2408 63.0183C34.2408 76.5889 70.2429 76.1209 70.2429 58.3389C70.2429 40.5568 73.4777 26.2166 56.6619 9.57591Z" fill="white" fill-opacity="0.2"/>
<mask id="mask0_341_19816" style="mask-type:luminance" maskUnits="userSpaceOnUse" x="0" y="0" width="71" height="73">
<path fill-rule="evenodd" clip-rule="evenodd" d="M56.6619 9.57591C39.8461 -7.06474 25.5227 0.503211 23.0303 13.181C20.5379 25.8588 -2.61463 28.3901 0.244004 43.3645C3.10264 58.3389 34.2408 49.4478 34.2408 63.0183C34.2408 76.5889 70.2429 76.1209 70.2429 58.3389C70.2429 40.5568 73.4777 26.2166 56.6619 9.57591Z" fill="white"/>
</mask>
<g mask="url(#mask0_341_19816)">
<g opacity="0.2">
<rect width="71" height="73" fill="#FA7602"/>
</g>
</g>
<g clip-path="url(#clip0_341_19816)">
<path d="M67.6144 57.5164C70.4649 57.5164 72.7757 55.2056 72.7757 52.3551C72.7757 49.5046 70.4649 47.1938 67.6144 47.1938C64.7639 47.1938 62.4531 49.5046 62.4531 52.3551C62.4531 55.2056 64.7639 57.5164 67.6144 57.5164Z" fill="#FA7602"/>
<path d="M28.3879 57.5164C31.2384 57.5164 33.5491 55.2056 33.5491 52.3551C33.5491 49.5046 31.2384 47.1938 28.3879 47.1938C25.5374 47.1938 23.2266 49.5046 23.2266 52.3551C23.2266 55.2056 25.5374 57.5164 28.3879 57.5164Z" fill="#FA7602"/>
<path d="M72.6352 18.4547L65.4094 31.874L58.1836 18.4547L72.6352 18.4547Z" fill="#FA7602"/>
<path d="M67.6116 49.2583C65.9043 49.2583 64.5149 50.6477 64.5149 52.3551C64.5149 53.6113 65.2695 54.69 66.3471 55.1752C64.9742 64.2168 57.2488 70.9357 47.9987 70.9357C38.7404 70.9357 31.0222 64.2199 29.6514 55.1752C30.728 54.69 31.4826 53.6113 31.4826 52.3551C31.4826 50.6477 30.0932 49.2583 28.3858 49.2583C26.6785 49.2583 25.2891 50.6477 25.2891 52.3551C25.2891 53.7858 26.2687 54.9811 27.5889 55.3352C29.0485 65.4617 37.6607 73.0002 47.9987 73.0002C58.3285 73.0002 66.9469 65.4596 68.4075 55.3352C69.7288 54.9811 70.7084 53.7858 70.7084 52.3551C70.7084 50.6477 69.319 49.2583 67.6116 49.2583ZM28.3858 51.3228C28.9556 51.3228 29.4181 51.7853 29.4181 52.3551C29.4181 52.9249 28.9556 53.3873 28.3858 53.3873C27.816 53.3873 27.3536 52.9249 27.3536 52.3551C27.3536 51.7853 27.816 51.3228 28.3858 51.3228ZM67.6116 53.3873C67.0418 53.3873 66.5794 52.9249 66.5794 52.3551C66.5794 51.7853 67.0418 51.3228 67.6116 51.3228C68.1815 51.3228 68.6439 51.7853 68.6439 52.3551C68.6439 52.9249 68.1815 53.3873 67.6116 53.3873Z" fill="#081539"/>
<path d="M51.0959 57.5161H44.9023V59.5806H51.0959V57.5161Z" fill="#FA7602"/>
<path d="M64.5161 9C55.9783 9 49.0323 15.9461 49.0323 24.4839C49.0323 26.6248 49.4813 28.7337 50.3298 30.6774H40.7659C40.6854 26.9396 38.3649 23.6219 34.9884 22.1995C36.0237 20.8204 36.6452 19.112 36.6452 17.2581C36.6452 12.7048 32.9404 9 28.3871 9C23.8338 9 20.129 12.7048 20.129 17.2581C20.129 19.1099 20.7494 20.8152 21.7827 22.1943C18.3505 23.6395 16 27.0511 16 30.8715V37.9032H36.6452V60.6129C36.6452 62.3203 38.0346 63.7097 39.7419 63.7097H56.2581C57.9654 63.7097 59.3548 62.3203 59.3548 60.6129V39.08C61.0054 39.6653 62.7334 39.9677 64.5161 39.9677C73.0539 39.9677 80 33.0217 80 24.4839C80 15.9461 73.0539 9 64.5161 9ZM38.7097 36.871H57.2903V53.3871H38.7097V36.871ZM57.2903 34.8064H38.7097V33.7742C38.7097 33.2044 39.1721 32.7419 39.7419 32.7419H56.2581C56.8279 32.7419 57.2903 33.2044 57.2903 33.7742V34.8064ZM28.3871 11.0645C31.8028 11.0645 34.5806 13.8423 34.5806 17.2581C34.5806 20.6738 31.8028 23.4516 28.3871 23.4516C24.9714 23.4516 22.1935 20.6738 22.1935 17.2581C22.1935 13.8423 24.9714 11.0645 28.3871 11.0645ZM18.0645 35.8387V30.8715C18.0645 27.5941 20.2901 24.7223 23.4065 23.8305C24.7928 24.8834 26.5156 25.5161 28.3871 25.5161C30.2565 25.5161 31.9763 24.8844 33.3615 23.8335C36.479 24.7234 38.7045 27.592 38.7086 30.8674C37.5102 31.2957 36.6452 32.4302 36.6452 33.7742V35.8387H18.0645ZM56.2581 61.6452H39.7419C39.1721 61.6452 38.7097 61.1827 38.7097 60.6129V55.4516H57.2903V60.6129C57.2903 61.1827 56.8279 61.6452 56.2581 61.6452ZM64.5161 37.9032C62.719 37.9032 60.9899 37.5378 59.3548 36.8534V33.7742C59.3548 32.0668 57.9654 30.6774 56.2581 30.6774H52.6369C51.6439 28.7719 51.0968 26.6506 51.0968 24.4839C51.0968 17.0846 57.1169 11.0645 64.5161 11.0645C71.9154 11.0645 77.9355 17.0846 77.9355 24.4839C77.9355 31.8831 71.9154 37.9032 64.5161 37.9032Z" fill="#081539"/>
<path d="M40.7734 38.9355V51.3226H55.2251V38.9355H40.7734ZM53.1605 49.2581H42.838V41.0001H53.1605V49.2581Z" fill="#FA7602"/>
</g>
<defs>
<clipPath id="clip0_341_19816">
<rect width="64" height="64" fill="white" transform="translate(16 9)"/>
</clipPath>
</defs>
</svg>
