<svg width="73" height="73" viewBox="0 0 73 73" fill="none" xmlns="http://www.w3.org/2000/svg">
<path fill-rule="evenodd" clip-rule="evenodd" d="M56.6619 9.57591C39.8461 -7.06474 25.5227 0.503211 23.0303 13.181C20.5379 25.8588 -2.61463 28.3901 0.244004 43.3645C3.10264 58.3389 34.2408 49.4478 34.2408 63.0183C34.2408 76.5889 70.2429 76.1209 70.2429 58.3389C70.2429 40.5568 73.4777 26.2166 56.6619 9.57591Z" fill="white" fill-opacity="0.2"/>
<mask id="mask0_341_19444" style="mask-type:luminance" maskUnits="userSpaceOnUse" x="0" y="0" width="71" height="73">
<path fill-rule="evenodd" clip-rule="evenodd" d="M56.6619 9.57591C39.8461 -7.06474 25.5227 0.503211 23.0303 13.181C20.5379 25.8588 -2.61463 28.3901 0.244004 43.3645C3.10264 58.3389 34.2408 49.4478 34.2408 63.0183C34.2408 76.5889 70.2429 76.1209 70.2429 58.3389C70.2429 40.5568 73.4777 26.2166 56.6619 9.57591Z" fill="white"/>
</mask>
<g mask="url(#mask0_341_19444)">
<g opacity="0.2">
<rect width="71" height="73" fill="#FA7602"/>
</g>
</g>
<path d="M67.8484 22.4498H67.2199C66.8484 21.1451 66.3294 19.8933 65.6697 18.7097L66.1165 18.2629C66.6276 17.752 66.9089 17.0706 66.9089 16.3442C66.9089 15.6178 66.6276 14.9365 66.1161 14.425L63.1397 11.4521C62.6286 10.9379 61.9463 10.6548 61.2186 10.6548C60.4909 10.6548 59.8086 10.9379 59.3 11.4496L58.8538 11.8958C57.6694 11.2341 56.4171 10.7141 55.1132 10.3427V9.71437C55.1133 8.21769 53.8957 7 52.3989 7H48.1908C46.6941 7 45.4764 8.21769 45.4764 9.71437V10.3427C44.1728 10.714 42.9197 11.2341 41.7329 11.8963L41.2887 11.4521C40.7774 10.9379 40.0952 10.6548 39.3675 10.6549C38.6399 10.6549 37.9577 10.9381 37.4491 11.4497L34.4733 14.4256C33.9622 14.9365 33.6809 15.6179 33.6809 16.3443C33.6809 17.0707 33.9622 17.752 34.4732 18.2629L34.9197 18.7096C34.2573 19.8968 33.738 21.1488 33.3686 22.4498H32.7378C31.2411 22.4498 30.0234 23.6675 30.0234 25.1642V29.376C30.0234 30.8727 31.2411 32.0904 32.7378 32.0904H33.3686C33.738 33.3912 34.2573 34.6433 34.9197 35.8306L34.4732 36.2773C33.962 36.7882 33.6807 37.4696 33.6807 38.196C33.6807 38.9223 33.962 39.6037 34.473 40.1145L37.4465 43.088C37.9577 43.6023 38.6398 43.8854 39.3674 43.8854H39.3675C40.0952 43.8854 40.7775 43.6023 41.2862 43.0906L41.7328 42.6439C42.9208 43.3067 44.1739 43.8261 45.4763 44.1954V44.8259C45.4763 46.3226 46.694 47.5403 48.1907 47.5403H52.3988C53.8955 47.5403 55.1132 46.3226 55.1132 44.8259V44.1954C56.416 43.826 57.6681 43.3069 58.8538 42.6444L59.2975 43.088C59.8086 43.6023 60.4908 43.8854 61.2185 43.8854C61.9462 43.8854 62.6286 43.6022 63.1367 43.0911L66.1165 40.1145C66.6275 39.6035 66.9087 38.9222 66.9087 38.1959C66.9087 37.4694 66.6275 36.7882 66.1165 36.2773L65.6696 35.8305C66.3293 34.6469 66.8482 33.3951 67.2198 32.0904H67.8483C69.345 32.0904 70.5627 30.8727 70.5627 29.376V25.1642C70.5628 23.6675 69.3452 22.4498 67.8484 22.4498ZM52.6915 44.8258C52.6915 44.9845 52.5576 45.1184 52.3989 45.1184H48.1908C48.0322 45.1184 47.8982 44.9845 47.8982 44.8258V43.2537V35.6198C47.8982 35.1134 47.5832 34.6605 47.1085 34.4844C43.8545 33.2776 41.6684 30.146 41.6684 26.6918C41.6684 23.9543 43.0315 21.3881 45.314 19.8279C45.4165 19.7579 45.5071 19.7007 45.5863 19.6539C45.5819 19.8113 45.5708 19.9609 45.5648 20.039C45.5557 20.162 45.5485 20.2589 45.5485 20.3552V26.0703C45.5485 28.6935 47.5982 30.8843 50.2146 31.0578C50.268 31.0613 50.3215 31.0613 50.3749 31.0578C52.9895 30.8844 55.0376 28.6936 55.0376 26.0703V20.3552C55.0376 20.2594 55.0305 20.163 55.0215 20.0409C55.0157 19.9624 55.0046 19.8119 55.0003 19.6537C55.0793 19.7005 55.1694 19.7575 55.2714 19.8274C57.5546 21.388 58.9177 23.9541 58.9177 26.6916C58.9177 30.1455 56.7328 33.2773 53.4808 34.4844C53.0062 34.6606 52.6912 35.1134 52.6912 35.6197V43.2536V44.8258H52.6915ZM68.141 29.376C68.141 29.5318 68.0043 29.6685 67.8484 29.6685H66.2798C65.7141 29.6685 65.2236 30.0603 65.0988 30.6121C64.7153 32.3065 64.0511 33.9088 63.1247 35.3743C62.8222 35.8529 62.8917 36.4772 63.292 36.8776L64.4042 37.9898C64.4764 38.0619 64.4872 38.1498 64.4872 38.1959C64.4872 38.2418 64.4764 38.3298 64.4046 38.4015L61.4222 41.3806C61.3541 41.4491 61.2738 41.4635 61.2186 41.4635C61.1635 41.4635 61.0833 41.4491 61.0126 41.3779L59.9004 40.2657C59.4994 39.8649 58.8745 39.7958 58.396 40.099C57.3623 40.754 56.2621 41.2737 55.1133 41.6578V36.4252C58.87 34.6768 61.3398 30.867 61.3398 26.6915C61.3398 23.1536 59.5822 19.8401 56.6384 17.8279C56.1875 17.5198 54.8161 16.5821 53.6167 17.2725C52.439 17.9506 52.5564 19.5401 52.6064 20.219C52.6107 20.278 52.615 20.3275 52.6159 20.3552V26.0703C52.6159 27.3958 51.6029 28.507 50.2949 28.6348C48.985 28.5069 47.9704 27.3957 47.9704 26.0703L47.9703 20.3639C47.9714 20.3275 47.9757 20.278 47.9801 20.2187C48.0306 19.5403 48.1489 17.9516 46.9721 17.2731C45.7732 16.5815 44.3998 17.5195 43.948 17.8279C41.0041 19.8402 39.2466 23.1537 39.2466 26.6916C39.2466 30.8677 41.7176 34.6778 45.4764 36.4256V41.658C44.3274 41.2739 43.2258 40.7539 42.1892 40.0986C41.9899 39.9726 41.7656 39.9112 41.5424 39.9112C41.2297 39.9112 40.9194 40.0322 40.6858 40.2659L39.5713 41.3806C39.5031 41.4492 39.4229 41.4636 39.3676 41.4636C39.3124 41.4636 39.2324 41.4492 39.1617 41.3781L36.1857 38.4021C36.1135 38.3299 36.1027 38.2419 36.1027 38.196C36.1027 38.15 36.1135 38.0621 36.1857 37.9898L37.2978 36.8776C37.6982 36.4772 37.7677 35.8529 37.4652 35.3743C36.534 33.901 35.8699 32.2995 35.4915 30.6141C35.3675 30.0614 34.8766 29.6684 34.31 29.6684H32.738C32.5822 29.6684 32.4455 29.5317 32.4455 29.3759V25.1641C32.4455 25.0055 32.5794 24.8715 32.738 24.8715H34.31C34.8766 24.8715 35.3674 24.4786 35.4915 23.9258C35.8699 22.2405 36.5339 20.6388 37.4652 19.1656C37.7677 18.6871 37.6982 18.0627 37.2978 17.6624L36.1856 16.5502C36.1135 16.478 36.1027 16.3901 36.1027 16.3441C36.1027 16.2981 36.1135 16.2102 36.1857 16.1379L39.1642 13.1593C39.2324 13.0907 39.3125 13.0763 39.3678 13.0763C39.423 13.0763 39.5031 13.0907 39.5739 13.1618L40.686 14.274C41.0865 14.6745 41.7109 14.7439 42.1893 14.4414C43.6607 13.5112 45.264 12.8458 46.9543 12.464C47.5065 12.3393 47.8985 11.8487 47.8985 11.2829V9.71437C47.8985 9.55574 48.0324 9.42181 48.191 9.42181H52.3992C52.5578 9.42181 52.6917 9.55574 52.6917 9.71437V11.2831C52.6917 11.8491 53.0837 12.3395 53.6358 12.4642C55.3276 12.8464 56.9292 13.5114 58.3962 14.441C58.8749 14.7442 59.4997 14.6752 59.9006 14.2744L61.0153 13.1596C61.0834 13.0911 61.1637 13.0767 61.2188 13.0767C61.274 13.0767 61.3542 13.0911 61.4254 13.1627L64.4045 16.1382C64.4766 16.2104 64.4874 16.2983 64.4874 16.3443C64.4874 16.3903 64.4766 16.4783 64.4044 16.5505L63.2923 17.6628C62.8919 18.0631 62.8224 18.6874 63.1249 19.166C64.0512 20.6315 64.7156 22.2337 65.099 23.9282C65.2239 24.48 65.7143 24.8718 66.28 24.8718H67.8487C68.0073 24.8718 68.1412 25.0057 68.1412 25.1643V29.376H68.141Z" fill="#FF7B07"/>
<path d="M57.3507 60.3187C56.8779 60.7916 56.8779 61.5584 57.3507 62.0314C57.5872 62.2677 57.8971 62.386 58.207 62.386C58.5169 62.386 58.8268 62.2677 59.0632 62.0314L59.0666 62.028C59.5395 61.5551 59.5378 60.79 59.0648 60.3172C58.5918 59.8443 57.8236 59.8461 57.3507 60.3187Z" fill="#081539"/>
<path d="M62.9592 48.5883L53.3457 53.5253C52.5308 52.6813 51.3889 52.1548 50.1258 52.1548H43.5389C43.1701 52.1548 43.08 52.1255 43.0739 52.1234C43.0205 52.0953 42.8517 51.9367 42.7162 51.8093L42.6562 51.7529C37.3272 46.7364 32.8257 47.0543 27.7066 49.0746C26.8783 49.4015 26.8623 49.4022 26.0305 49.4377L24.5411 49.4388C24.1168 48.1588 22.9093 47.2324 21.4888 47.2324H16.6456C14.8745 47.2324 13.4336 48.675 13.4336 50.448V63.1588C13.4336 64.9298 14.8745 66.3708 16.6456 66.3708H21.4888C22.9092 66.3708 24.1166 65.4456 24.541 64.1671H27.2655C27.5061 64.1671 27.5061 64.1671 27.786 64.2459C27.8877 64.2746 28.0115 64.3095 28.1713 64.3525L40.7035 67.7052C41.2559 67.8544 41.7625 68.0013 42.2526 68.1432C43.8582 68.6084 45.2079 68.9996 46.6146 68.9996C48.2045 68.9996 49.867 68.5 52.0535 67.0427C52.0641 67.0357 52.0746 67.0285 52.085 67.0211L54.4775 65.315C55.0221 64.9267 55.1487 64.1706 54.7604 63.626C54.3721 63.0814 53.6157 62.9548 53.0715 63.3432L50.6949 65.0378C47.5218 67.1483 46.1745 66.7582 42.9266 65.8171C42.4262 65.6721 41.9089 65.5222 41.3324 65.3665L28.7993 62.0136C28.6525 61.9741 28.5374 61.9417 28.4429 61.915C27.9857 61.7862 27.8147 61.7455 27.2657 61.7455H24.7044V51.8616H26.013C26.0304 51.8616 26.0476 51.8612 26.065 51.8605L26.1341 51.8576C27.1492 51.8143 27.4331 51.7865 28.5958 51.3275C33.0918 49.5532 36.5623 49.3424 40.9978 53.518L41.0578 53.5743C41.8158 54.2867 42.2523 54.5768 43.539 54.5768H50.1259C50.8989 54.5768 51.573 55.006 51.9244 55.6382C51.9282 55.6452 51.9326 55.6519 51.9364 55.6589C52.0934 55.9491 52.1827 56.2812 52.1827 56.6338C52.1827 57.7661 51.2601 58.6872 50.126 58.6872H39.451C38.7824 58.6872 38.2401 59.2294 38.2401 59.8982C38.2401 60.5669 38.7824 61.1091 39.451 61.1091H50.126C52.5955 61.1091 54.6045 59.1015 54.6045 56.6338C54.6045 56.2984 54.5663 55.9719 54.4961 55.6574L64.0656 50.743C64.9714 50.278 66.2099 50.3279 66.8248 51.3257C67.3687 52.2051 67.0695 53.3741 66.1292 54.0445L61.9314 57.0342C61.3866 57.4222 61.2594 58.1783 61.6474 58.7231C61.8837 59.0548 62.2564 59.2317 62.6348 59.2317C62.8778 59.2317 63.1232 59.1586 63.3362 59.007L67.5345 56.017C69.5284 54.5955 70.1086 52.031 68.8854 50.0535C67.6825 48.1012 65.135 47.4713 62.9592 48.5883ZM22.2824 63.1588C22.2824 63.5872 21.919 63.949 21.4888 63.949H16.6456C16.2172 63.949 15.8554 63.5871 15.8554 63.1588V50.4481C15.8554 50.0105 16.21 49.6544 16.6456 49.6544H21.4888C21.919 49.6544 22.2824 50.0178 22.2824 50.4481V63.1588Z" fill="#081539"/>
</svg>
