<svg width="78" height="73" viewBox="0 0 78 73" fill="none" xmlns="http://www.w3.org/2000/svg">
<path fill-rule="evenodd" clip-rule="evenodd" d="M56.6619 9.57591C39.8461 -7.06474 25.5227 0.503211 23.0303 13.181C20.5379 25.8588 -2.61463 28.3901 0.244004 43.3645C3.10264 58.3389 34.2408 49.4478 34.2408 63.0183C34.2408 76.5889 70.2429 76.1209 70.2429 58.3389C70.2429 40.5568 73.4777 26.2166 56.6619 9.57591Z" fill="white" fill-opacity="0.2"/>
<mask id="mask0_341_19418" style="mask-type:luminance" maskUnits="userSpaceOnUse" x="0" y="0" width="71" height="73">
<path fill-rule="evenodd" clip-rule="evenodd" d="M56.6619 9.57591C39.8461 -7.06474 25.5227 0.503211 23.0303 13.181C20.5379 25.8588 -2.61463 28.3901 0.244004 43.3645C3.10264 58.3389 34.2408 49.4478 34.2408 63.0183C34.2408 76.5889 70.2429 76.1209 70.2429 58.3389C70.2429 40.5568 73.4777 26.2166 56.6619 9.57591Z" fill="white"/>
</mask>
<g mask="url(#mask0_341_19418)">
<g opacity="0.2">
<rect width="71" height="73" fill="#FA7602"/>
</g>
</g>
<g clip-path="url(#clip0_341_19418)">
<path d="M77.5148 30.6857L49.7686 11.3504C49.3811 11.0803 48.8667 11.0791 48.4779 11.3472L20.4898 30.6439C20.1832 30.8553 20 31.204 20 31.5765V39.656C20 40.5504 21.038 41.0974 21.7759 40.5886L27.3531 36.743V63.7206C27.3531 64.3461 27.8602 64.8534 28.4859 64.8534H44.0697C44.6953 64.8534 45.2025 64.3461 45.2025 63.7206C45.2025 63.0951 44.6953 62.5878 44.0697 62.5878H29.6187V35.1809L49.1042 21.745L68.3813 35.1771V62.5878H54.0525C53.4269 62.5878 52.9196 63.0951 52.9196 63.7206C52.9196 64.3461 53.4269 64.8534 54.0525 64.8534H69.5141C70.1396 64.8534 70.6469 64.3461 70.6469 63.7206V36.7558L76.2196 40.6387C76.9578 41.1529 78 40.605 78 39.7093V31.6151C78 31.2446 77.8188 30.8975 77.5148 30.6857ZM75.7344 37.5393L49.7552 19.4373C49.3736 19.1714 48.8473 19.1701 48.4645 19.4342L22.2656 37.4989V32.1714L49.1175 13.6581L75.7344 32.2064V37.5393Z" fill="#081539"/>
<path d="M50.1187 63.2869C49.7298 62.3541 48.3491 62.3807 48.0075 63.3391C47.6625 64.3072 48.737 65.2121 49.6311 64.7053C50.1241 64.4257 50.333 63.8104 50.1187 63.2869Z" fill="#081539"/>
<path d="M55.6351 55.0594V57.15H54.5153C53.8898 57.15 53.3825 57.6573 53.3825 58.2828C53.3825 58.9084 53.8898 59.4156 54.5153 59.4156H59.0697C59.6952 59.4156 60.2025 58.9084 60.2025 58.2828C60.2025 57.6573 59.6952 57.15 59.0697 57.15H57.9007V55.0594H60.4894C60.9143 55.0594 61.1954 54.8212 61.4789 54.5422C62.817 53.2255 63.5844 51.3936 63.5844 49.5164C63.5844 47.916 63.025 46.3497 62.0312 45.1062C63.0249 43.8627 63.5844 42.2965 63.5844 40.696C63.5844 38.8197 62.8176 36.9884 61.4807 35.672L61.2843 35.4785C61.0724 35.2697 60.7869 35.1528 60.4894 35.1528H37.5129C37.0883 35.1528 36.8053 35.3925 36.5217 35.672C35.1848 36.9884 34.418 38.8196 34.418 40.696C34.418 42.2967 34.9775 43.863 35.9712 45.1063C34.9774 46.3497 34.418 47.9161 34.418 49.5167C34.418 51.3939 35.1853 53.2256 36.5233 54.5422C36.807 54.8213 37.0879 55.0595 37.5129 55.0595H39.9328V57.1501H38.8131C38.1874 57.1501 37.6802 57.6574 37.6802 58.2829C37.6802 58.9085 38.1874 59.4158 38.8131 59.4158H43.3675C43.9932 59.4158 44.5003 58.9085 44.5003 58.2829C44.5003 57.6574 43.9932 57.1501 43.3675 57.1501H42.1985V55.0595H55.6351V55.0594ZM37.9822 37.4183H60.02C60.8475 38.3 61.3188 39.484 61.3188 40.6959C61.3188 41.9076 60.8476 43.0915 60.0202 43.9734H37.9822C37.1547 43.0917 36.6836 41.9078 36.6836 40.6959C36.6836 39.4843 37.1547 38.3001 37.9822 37.4183ZM36.6836 49.5163C36.6836 48.3046 37.1548 47.1205 37.9822 46.2389H60.0201C60.8475 47.1205 61.3188 48.3046 61.3188 49.5164C61.3188 50.7283 60.8476 51.912 60.0202 52.7938H37.9821C37.1546 51.9121 36.6836 50.7281 36.6836 49.5163Z" fill="#FC7B0A"/>
<path d="M40.0183 41.1799C40.2556 41.7502 40.925 42.0288 41.4966 41.7928C42.0669 41.5572 42.346 40.8832 42.1094 40.3133C41.8728 39.7432 41.2008 39.464 40.63 39.7005C40.0606 39.9363 39.781 40.6109 40.0183 41.1799Z" fill="#F67B10"/>
<path d="M45.7475 41.6883C46.1675 41.9688 46.7331 41.9309 47.1161 41.6043C47.4602 41.3109 47.5936 40.8194 47.4516 40.391C47.1286 39.4175 45.7253 39.363 45.3306 40.3132C45.1271 40.8029 45.3008 41.3965 45.7475 41.6883Z" fill="#F67B10"/>
<path d="M41.2839 50.6175C41.7584 50.5212 42.1255 50.1253 42.1865 49.6453C42.2473 49.167 41.9827 48.6882 41.5469 48.483C40.6562 48.0637 39.661 48.9547 39.9963 49.8884C40.1828 50.4078 40.7414 50.7276 41.2839 50.6175Z" fill="#F67B10"/>
<path d="M45.3308 49.9398C45.7309 50.901 47.1572 50.8297 47.4605 49.8356C47.7536 48.8747 46.6873 48.0308 45.8186 48.5214C45.3276 48.7988 45.1136 49.4191 45.3308 49.9398Z" fill="#F67B10"/>
</g>
<defs>
<clipPath id="clip0_341_19418">
<rect width="58" height="58" fill="white" transform="translate(20 9)"/>
</clipPath>
</defs>
</svg>
