<svg width="1440" height="727" viewBox="0 0 1440 727" fill="none" xmlns="http://www.w3.org/2000/svg">
<rect width="1440" height="727" fill="#F8F8F8"/>
<mask id="mask0_2231_96" style="mask-type:alpha" maskUnits="userSpaceOnUse" x="0" y="0" width="1440" height="727">
<rect width="1440" height="727" fill="#0068FA"/>
</mask>
<g mask="url(#mask0_2231_96)">
<path d="M660.763 -20.0002C610.363 -98.0002 209.763 -229.833 21.7629 -279C7.76294 -97.1667 -18.8371 279.7 -13.2371 332.5C-6.23706 398.5 134.263 423 368.763 400.5C603.263 378 723.763 77.4998 660.763 -20.0002Z" stroke="white" stroke-linecap="round" stroke-linejoin="round"/>
<path d="M1384.44 956.083C1474.07 931.756 1721.35 590.126 1825.3 425.942C1656.31 357.373 1305.33 217.56 1253.32 206.858C1188.31 193.481 1122.29 319.901 1072.5 550.156C1022.71 780.412 1272.42 986.492 1384.44 956.083Z" stroke="#2D85FF" stroke-linecap="round" stroke-linejoin="round"/>
<path d="M894.462 192.465C967.954 191.64 1305.87 -41.7421 1458.05 -157.17C1375.81 -251.958 1203.74 -446.637 1173.31 -467.052C1135.28 -492.572 1027.72 -400.618 880.193 -217.69C732.662 -34.7608 802.597 193.497 894.462 192.465Z" stroke="#FC7B0A" stroke-linecap="round" stroke-linejoin="round"/>
<path d="M279.424 631.275C265.743 710.138 450.1 1081 544.245 1248.38C662.632 1163.58 906.411 985.99 934.43 954.085C969.454 914.204 891.743 795.533 723.981 630.707C556.218 465.881 296.524 532.697 279.424 631.275Z" stroke="#FC7B0A" stroke-linecap="round" stroke-linejoin="round"/>
<path d="M317.569 630.789C297.506 713.23 464.889 1083.05 551.946 1249.18C682.632 1153.08 951.95 952.141 983.73 917.173C1023.45 873.463 950.194 756.468 785.476 598.268C620.757 440.068 342.648 527.738 317.569 630.789Z" stroke="#FC7B0A" stroke-opacity="0.2" stroke-linecap="round" stroke-linejoin="round"/>
</g>
</svg>
