<svg width="74" height="73" viewBox="0 0 74 73" fill="none" xmlns="http://www.w3.org/2000/svg">
<path fill-rule="evenodd" clip-rule="evenodd" d="M56.6619 9.57591C39.8461 -7.06474 25.5227 0.503211 23.0303 13.181C20.5379 25.8588 -2.61463 28.3901 0.244004 43.3645C3.10264 58.3389 34.2408 49.4478 34.2408 63.0183C34.2408 76.5889 70.2429 76.1209 70.2429 58.3389C70.2429 40.5568 73.4777 26.2166 56.6619 9.57591Z" fill="white" fill-opacity="0.2"/>
<mask id="mask0_341_19397" style="mask-type:luminance" maskUnits="userSpaceOnUse" x="0" y="0" width="71" height="73">
<path fill-rule="evenodd" clip-rule="evenodd" d="M56.6619 9.57591C39.8461 -7.06474 25.5227 0.503211 23.0303 13.181C20.5379 25.8588 -2.61463 28.3901 0.244004 43.3645C3.10264 58.3389 34.2408 49.4478 34.2408 63.0183C34.2408 76.5889 70.2429 76.1209 70.2429 58.3389C70.2429 40.5568 73.4777 26.2166 56.6619 9.57591Z" fill="white"/>
</mask>
<g mask="url(#mask0_341_19397)">
<g opacity="0.2">
<rect width="71" height="73" fill="#FA7602"/>
</g>
</g>
<g clip-path="url(#clip0_341_19397)">
<path d="M60.7157 26.8393C60.5948 26.5521 60.3386 26.344 60.0327 26.2845C59.7268 26.2251 59.4113 26.3221 59.1916 26.5431L54.4924 31.2666H51.7919V28.5362L56.4939 23.8006C56.7126 23.5802 56.8075 23.2655 56.7472 22.9609C56.6869 22.6564 56.4792 22.4016 56.1931 22.2812C53.0902 20.9716 49.5074 21.6078 47.0451 23.9056C44.5828 26.2034 43.7008 29.7338 44.7931 32.9196L44.2408 33.4803L40.1116 29.3249L40.1265 29.31C40.3153 29.1205 40.4138 28.8593 40.3972 28.5924C40.3806 28.3255 40.2504 28.0785 40.0396 27.9139L33.9995 23.1951C33.6269 22.9035 33.0952 22.9364 32.7614 23.2717L30.0768 25.9675C29.7458 26.3003 29.713 26.8269 30.0002 27.1981L34.6985 33.2719C34.8642 33.4861 35.1146 33.6178 35.3849 33.633C35.6552 33.6483 35.9189 33.5455 36.1076 33.3513L40.2331 37.4983L30.7281 47.051C29.2573 48.5364 29.2573 50.9292 30.7281 52.4146C31.4315 53.1352 32.3959 53.5415 33.4029 53.5415C34.4099 53.5415 35.3743 53.1352 36.0777 52.4146L44.2352 44.2206L52.8992 52.9201C53.7835 53.8117 54.9873 54.3133 56.2431 54.3133C57.4988 54.3133 58.7026 53.8117 59.5869 52.9201C61.4266 51.0628 61.4266 48.0701 59.5869 46.2128L52.1003 38.686C55.0887 38.9505 57.9969 37.6278 59.7615 35.2015C61.526 32.7751 61.8882 29.6009 60.7157 26.8393ZM36.771 31.3713C36.4335 31.041 35.9048 31.0084 35.5292 31.2947L31.9783 26.7085L33.4996 25.1798L38.0615 28.7456C38.0319 28.791 38.0063 28.8388 37.9848 28.8885C37.9147 28.991 37.8767 29.112 37.8755 29.2361C37.8148 29.8426 37.8176 29.6744 42.913 34.8053L41.5487 36.1761L36.771 31.3713ZM34.7527 51.1008C33.9997 51.8462 32.785 51.8402 32.0396 51.0872C31.2941 50.3343 31.3002 49.1196 32.0531 48.3741C38.9193 41.4687 25.4962 54.9656 44.8267 35.5295C44.8389 35.5201 44.8445 35.5043 44.8557 35.494C45.0687 35.3071 44.3436 36.0303 46.5376 33.812C46.8039 33.5432 46.8817 33.1403 46.7348 32.7916C45.7744 30.5306 46.1303 27.925 47.662 26.0044C49.1937 24.0838 51.6548 23.157 54.0728 23.5903L50.194 27.4934C50.0203 27.6686 49.9229 27.9054 49.9231 28.1522V32.1973C49.9231 32.7134 50.3414 33.1318 50.8575 33.1318H54.8811C55.1299 33.1317 55.3683 33.0325 55.5436 32.8561L59.414 28.9661C59.8636 31.378 58.9527 33.8419 57.0425 35.3815C55.1323 36.921 52.531 37.2876 50.2697 36.3359C49.9183 36.1865 49.5112 36.2661 49.2419 36.5368L47.6001 38.1879C45.6041 40.1923 43.4709 42.3274 43.569 42.2293C42.6682 43.1339 46.8385 38.9458 34.7527 51.0961V51.1008ZM58.2619 51.6063C57.1342 52.69 55.3519 52.69 54.2242 51.6063L45.5546 42.8993L49.6044 38.8308L58.2619 47.5341C59.3739 48.6619 59.3739 50.4738 58.2619 51.6016V51.6063Z" fill="#FA7602"/>
<path d="M66.9933 16H24.0097C20.399 16.0041 17.4729 18.9302 17.4688 22.541V54.3115C17.4729 57.9222 20.399 60.8483 24.0097 60.8525H33.3895C33.3895 62.5167 33.0241 66.3245 30.033 68.7755C29.3967 69.2838 29.1629 70.1458 29.4551 70.9061C29.7473 71.6664 30.4983 72.1498 31.3113 72.1011C35.9358 71.7852 43.885 69.8687 46.2182 60.8525H66.9933C70.6041 60.8483 73.5302 57.9222 73.5343 54.3115V22.541C73.5302 18.9302 70.6041 16.0041 66.9933 16ZM71.6655 54.3115C71.6624 56.8905 69.5724 58.9805 66.9933 58.9836C44.2868 58.9836 45.4959 58.9537 45.2212 59.0397C44.9957 59.1088 44.8064 59.2639 44.6942 59.4714C44.6568 59.5377 44.5849 59.7227 44.5849 59.7227C42.7721 68.1952 35.4097 69.9472 31.2179 70.2201C35.89 66.3889 35.2462 60.0816 35.2172 59.8152C35.2172 59.805 35.1406 59.5517 35.1238 59.5125C35.0651 59.411 34.9945 59.3169 34.9136 59.2322C34.5407 58.8902 35.049 58.9836 24.0097 58.9836C21.4307 58.9805 19.3407 56.8905 19.3376 54.3115V22.541C19.3407 19.9619 21.4307 17.8719 24.0097 17.8689H66.9933C69.5724 17.8719 71.6624 19.9619 71.6655 22.541V54.3115Z" fill="#081539"/>
</g>
<defs>
<clipPath id="clip0_341_19397">
<rect width="57" height="57" fill="white" transform="translate(17 16)"/>
</clipPath>
</defs>
</svg>
