<svg width="57" height="57" viewBox="0 0 57 57" fill="none" xmlns="http://www.w3.org/2000/svg">
<g clip-path="url(#clip0_341_19378)">
<path d="M36.1004 44.6499C36.1 44.6499 36.0996 44.6499 36.0992 44.6499H20.8992C20.3748 44.6496 19.9494 45.0744 19.9492 45.5988C19.9492 45.5991 19.9492 45.5995 19.9492 45.5999V47.4999C19.9506 48.5487 20.8004 49.3985 21.8493 49.3999H35.1493C36.1981 49.3986 37.0479 48.5487 37.0493 47.4999V45.5999C37.0495 45.0755 36.6247 44.6501 36.1004 44.6499ZM35.1492 47.4999H21.8493V46.5499H35.1493V47.4999H35.1492Z" fill="#FF7B07"/>
<path d="M36.1004 34.2002C36.1 34.2002 36.0996 34.2002 36.0992 34.2002H20.8992C20.3748 34.1999 19.9494 34.6247 19.9492 35.149C19.9492 35.1494 19.9492 35.1498 19.9492 35.1502V37.0502C19.9506 38.099 20.8004 38.9488 21.8493 38.9502H35.1493C36.1981 38.9489 37.0479 38.099 37.0493 37.0502V35.1502C37.0495 34.6258 36.6247 34.2005 36.1004 34.2002ZM35.1492 37.0502H21.8493V36.1002H35.1493V37.0502H35.1492Z" fill="#FF7B07"/>
<path d="M54.15 0H36.8561C35.4994 0.000222656 34.2077 0.580576 33.3066 1.59478L27.4071 8.23082C27.2295 8.42932 26.9768 8.54399 26.7105 8.54699L4.98939 2.88062C4.48163 2.74836 3.96284 3.05284 3.83058 3.56061C3.69832 4.06838 4.0028 4.58716 4.51057 4.71942L19.1946 8.55H2.85C1.27671 8.55167 0.00166992 9.82671 0 11.4V55.1C0.00133594 56.1488 0.851215 56.9986 1.90004 57H7.60004C8.64886 56.9987 9.49863 56.1488 9.50007 55.1V53.1999H47.5V55.1C47.5014 56.1488 48.3513 56.9986 49.4001 57H55.1001C56.1489 56.9987 56.9987 56.1488 57.0001 55.1V2.85C56.9983 1.27671 55.7233 0.00166992 54.15 0ZM7.60004 55.1H1.90004V53.1999H7.60004V55.1ZM55.1 55.1H49.4V53.1999H55.1V55.1ZM55.1 51.3H8.55H1.90004V42.75H55.1001V51.3H55.1ZM55.1 40.85H1.90004V32.3H55.1001V40.85H55.1ZM55.1 30.4H1.90004V15.2H55.1001V30.4H55.1ZM55.1 13.3H1.90004V11.4C1.90037 10.8754 2.32553 10.4504 2.85 10.45H26.6965C27.5105 10.4498 28.2856 10.1018 28.8265 9.49351L34.7269 2.85646C35.2674 2.24816 36.0423 1.90004 36.8561 1.89993H54.15C54.6745 1.90026 55.0996 2.32542 55.1 2.84989V13.3Z" fill="#081539"/>
<path d="M52.2503 17.1001C52.25 17.1001 52.2495 17.1001 52.2492 17.1001H20.8992C20.3748 17.0998 19.9494 17.5246 19.9492 18.0489C19.9492 18.0493 19.9492 18.0497 19.9492 18.0501V27.55C19.9489 28.0744 20.3737 28.4998 20.8981 28.5C20.8984 28.5 20.8988 28.5 20.8992 28.5H52.2492C52.7735 28.5003 53.1989 28.0755 53.1991 27.5511C53.1991 27.5508 53.1991 27.5504 53.1991 27.55V18.0501C53.1995 17.5257 52.7747 17.1004 52.2503 17.1001ZM35.1492 26.6001H21.8493V19H35.1493V26.6001H35.1492ZM51.2992 26.6001H37.0492V19H51.2992V26.6001Z" fill="#081539"/>
<path d="M26.3077 21.1784C25.9382 20.8155 25.3459 20.8155 24.9764 21.1784L24.0264 22.1284C23.6522 22.496 23.6468 23.0974 24.0144 23.4717C24.382 23.846 24.9834 23.8513 25.3577 23.4837C25.3617 23.4797 25.3657 23.4757 25.3697 23.4717L26.3197 22.5217C26.6873 22.1475 26.682 21.5461 26.3077 21.1784Z" fill="#FF7B07"/>
<path d="M31.0729 21.1785C31.0728 21.1784 31.0727 21.1783 31.0726 21.1782C30.7019 20.8072 30.1006 20.8071 29.7295 21.1779C29.7294 21.178 29.7293 21.1781 29.7292 21.1782L27.8293 23.0782C27.456 23.447 27.4523 24.0483 27.821 24.4215C28.1897 24.7948 28.7911 24.7985 29.1643 24.4298C29.1671 24.427 29.1699 24.4242 29.1727 24.4214L31.0727 22.5216C31.4436 22.1508 31.4437 21.5495 31.0729 21.1785Z" fill="#FF7B07"/>
</g>
<defs>
<clipPath id="clip0_341_19378">
<rect width="57" height="57" fill="white"/>
</clipPath>
</defs>
</svg>
